<svg xmlns="http://www.w3.org/2000/svg" viewBox="0 0 32 40" x="0px" y="0px">
  <path
    d="M30.45,15.85A15,15,0,0,0,23.8,9l2-2a.5.5,0,0,0,0-.7.5.5,0,0,0-.71,0L22.85,8.51A16.91,16.91,0,0,0,16,7.07,15.79,15.79,0,0,0,1.55,15.85a.47.47,0,0,0,0,.43A15,15,0,0,0,8.2,23.16l-2,2a.5.5,0,0,0,0,.7.51.51,0,0,0,.36.15.5.5,0,0,0,.35-.15l2.24-2.23A16.84,16.84,0,0,0,16,25.07a15.79,15.79,0,0,0,14.45-8.79A.47.47,0,0,0,30.45,15.85Zm-27.9.22A14.82,14.82,0,0,1,16,8.07a15.86,15.86,0,0,1,6.09,1.2l-2.94,2.94A5,5,0,0,0,11,16.07a4.92,4.92,0,0,0,1.15,3.14L8.94,22.42A14.08,14.08,0,0,1,2.55,16.07Zm10.3,2.44A4,4,0,0,1,16,12.07a4,4,0,0,1,2.44.85Zm6.3-4.88a4,4,0,0,1-5.59,5.58ZM16,24.07a15.78,15.78,0,0,1-6.08-1.21l2.93-2.94A5,5,0,0,0,21,16.07a4.93,4.93,0,0,0-1.15-3.15l3.21-3.2a14.08,14.08,0,0,1,6.39,6.35A14.84,14.84,0,0,1,16,24.07Z"
  />
</svg>
