<svg xmlns="http://www.w3.org/2000/svg" xmlns:xlink="http://www.w3.org/1999/xlink" version="1.1" x="0px" y="0px" viewBox="0 0 100 125" enable-background="new 0 0 100 100" xml:space="preserve">
  <path
    d="M94.977,49.822c-5.473-15.817-23.83-26.865-44.645-26.865c-20.813,0-39.172,11.047-44.646,26.865l-0.169,0.49l0.169,0.49  C11.16,66.62,29.519,77.667,50.331,77.667c20.814,0,39.173-11.047,44.646-26.865l0.169-0.49L94.977,49.822z M50.331,74.667  c-19.335,0-36.361-9.989-41.634-24.355c5.272-14.366,22.299-24.355,41.635-24.355s36.362,9.989,41.634,24.355  C86.694,64.678,69.668,74.667,50.331,74.667z M50.658,33.833c-8.918,0-16.174,7.255-16.174,16.173s7.256,16.173,16.174,16.173  s16.173-7.255,16.173-16.173S59.576,33.833,50.658,33.833z M50.658,63.179c-7.264,0-13.174-5.909-13.174-13.173  s5.91-13.173,13.174-13.173s13.173,5.91,13.173,13.173S57.922,63.179,50.658,63.179z"
  />
</svg>
